<svg xmlns="http://www.w3.org/2000/svg" width="684" height="192" viewBox="0 0 684 192" version="1.1"><path d="M 52.020 34.698 C 41.794 39.994, 41.364 53.983, 51.241 60.005 C 55.445 62.569, 60.278 62.534, 64.954 59.906 C 69.835 57.162, 72.329 52.812, 72.244 47.188 C 72.091 37.073, 60.845 30.127, 52.020 34.698 M 153.256 58.645 C 143.940 63.237, 143.572 77.742, 152.620 83.670 C 156.649 86.310, 163.733 86.038, 167.882 83.084 C 172.704 79.651, 175.399 73.147, 174.025 68.262 C 171.304 58.585, 162.060 54.305, 153.256 58.645 M 49.627 67.468 C 43.612 69.612, 38.799 74.121, 35.250 80.934 C 32.429 86.351, 32 88.162, 32 94.657 C 32 101.417, 32.305 102.583, 35.154 106.724 C 39.813 113.495, 52.792 126.099, 61.163 131.981 L 68.500 137.136 69.039 113.318 C 69.602 88.438, 70.134 85.285, 75.002 78 C 75.920 76.625, 76.963 74.993, 77.319 74.374 C 78.101 73.010, 71.588 68.316, 67.144 67.041 C 64.411 66.258, 63.762 66.437, 62.546 68.314 C 61.318 70.210, 61.372 72.885, 62.954 88.500 L 64.777 106.500 62.639 109.743 C 60.203 113.435, 59.412 113.433, 56.644 109.726 C 54.704 107.126, 54.697 106.737, 56.262 88.789 C 57.660 72.769, 57.678 70.221, 56.406 68.250 C 54.726 65.647, 54.734 65.648, 49.627 67.468 M 43 81.500 C 43 83.519, 42.505 84, 40.427 84 C 37.180 84, 37.419 87.342, 40.699 87.811 C 42.052 88.005, 42.995 88.952, 43.189 90.311 C 43.360 91.515, 44.175 92.500, 45 92.500 C 45.825 92.500, 46.640 91.515, 46.811 90.311 C 47.005 88.952, 47.948 88.005, 49.301 87.811 C 52.581 87.342, 52.820 84, 49.573 84 C 47.495 84, 47 83.519, 47 81.500 C 47 79.667, 46.467 79, 45 79 C 43.533 79, 43 79.667, 43 81.500 M 150.741 90.429 C 147.026 91.755, 144.194 93.555, 142.765 95.500 C 142.361 96.050, 142.024 111.057, 142.015 128.848 L 142 161.196 148.250 160.515 C 166.750 158.497, 180.077 151.487, 185.556 140.892 C 187.871 136.415, 187.169 112.471, 184.548 106.500 C 180.806 97.976, 171.876 90, 166.075 90 C 162.167 90, 161.748 93.058, 163.432 109.316 C 165.554 129.810, 165.505 131.177, 162.556 133.947 L 160.113 136.243 157.561 133.371 C 156.054 131.676, 155.178 129.681, 155.422 128.500 C 155.650 127.400, 156.395 119.188, 157.078 110.250 C 158.013 98.032, 158.039 93.380, 157.182 91.500 C 155.878 88.639, 155.797 88.625, 150.741 90.429 M 172 106.500 C 172 108.519, 171.505 109, 169.427 109 C 167.515 109, 166.940 109.450, 167.190 110.748 C 167.376 111.712, 168.418 112.497, 169.513 112.498 C 170.812 112.499, 171.611 113.280, 171.820 114.750 C 172.020 116.163, 172.832 117, 174 117 C 175.168 117, 175.980 116.163, 176.180 114.750 C 176.386 113.304, 177.304 112.386, 178.750 112.180 C 181.869 111.738, 181.653 109, 178.500 109 C 176.500 109, 176 108.500, 176 106.500 C 176 104.667, 175.467 104, 174 104 C 172.533 104, 172 104.667, 172 106.500 M 231.700 149.633 C 231.315 150.018, 231 156.108, 231 163.167 L 231 176 241.500 176 L 252 176 252 172.500 L 252 169 245.500 169 C 240.389 169, 239 168.679, 239 167.500 C 239 166.346, 240.285 166, 244.563 166 L 250.127 166 249.813 162.750 C 249.508 159.581, 249.370 159.492, 244.250 159.198 C 240.473 158.980, 239 158.489, 239 157.448 C 239 156.331, 240.501 156, 245.563 156 L 252.127 156 251.813 152.750 L 251.500 149.500 241.950 149.216 C 236.698 149.060, 232.086 149.248, 231.700 149.633 M 261.270 150.483 C 253.998 153.644, 251.505 164.881, 256.703 171.059 C 260.202 175.217, 265.100 177.260, 269.564 176.422 C 271.599 176.040, 273.572 176.230, 274.359 176.883 C 276.015 178.257, 279.407 174.917, 279.678 171.645 C 279.776 170.465, 280.411 167.663, 281.090 165.417 C 282.171 161.841, 282.087 160.849, 280.412 157.430 C 276.782 150.020, 268.908 147.162, 261.270 150.483 M 283.714 149.619 C 282.201 151.132, 282.970 165.434, 284.752 168.929 C 288.572 176.422, 297.282 178.784, 303.850 174.107 C 307.831 171.272, 309.215 166.504, 308.815 157 C 308.523 150.040, 308.334 149.476, 306.195 149.173 C 302.227 148.611, 301.257 150.437, 301.198 158.579 C 301.167 162.874, 300.629 166.742, 299.949 167.561 C 298.481 169.330, 293.413 169.455, 292.309 167.750 C 291.864 167.063, 291.275 162.675, 291 158 L 290.500 149.500 287.464 149.203 C 285.794 149.039, 284.107 149.227, 283.714 149.619 M 312.714 149.619 C 312.321 150.012, 312 156.108, 312 163.167 L 312 176 316.029 176 L 320.058 176 319.779 162.750 L 319.500 149.500 316.464 149.203 C 314.794 149.039, 313.107 149.227, 312.714 149.619 M 324.667 149.667 C 324.300 150.033, 324 156.108, 324 163.167 L 324 176 327.500 176 C 330.722 176, 331 175.762, 331 173 C 331 170.078, 331.126 170, 335.864 170 C 339.755 170, 341.242 169.486, 343.300 167.427 C 348.643 162.084, 347.219 153.243, 340.568 150.464 C 337.036 148.988, 325.903 148.430, 324.667 149.667 M 354.898 151.270 C 345.017 157.871, 346.501 171.353, 357.574 175.582 C 361.945 177.251, 362.304 177.244, 366.709 175.409 C 372.371 173.052, 375.085 169.553, 375.665 163.864 C 376.782 152.906, 364.028 145.171, 354.898 151.270 M 384 149.706 C 380.668 150.924, 378 154.399, 378 157.519 C 378 161.485, 380.437 163.772, 386.912 165.883 C 392.092 167.572, 393.479 169.280, 390.101 169.811 C 389.013 169.983, 387.169 169.169, 386.003 168.003 C 383.149 165.149, 377.332 165.503, 377.837 168.500 C 378.666 173.430, 386.290 177.754, 391.957 176.510 C 396.905 175.423, 400 172.313, 400 168.427 C 400 163.911, 397.417 161.468, 390.527 159.465 C 387.473 158.577, 385.232 157.434, 385.546 156.925 C 386.457 155.451, 390.634 155.854, 392.042 157.551 C 393.549 159.367, 399.136 159.140, 399.760 157.238 C 399.988 156.543, 398.606 154.406, 396.688 152.488 C 393.861 149.661, 392.470 149.015, 389.350 149.079 C 387.233 149.122, 384.825 149.405, 384 149.706 M 411.723 149.610 C 411.387 149.946, 413.562 153.879, 416.556 158.351 C 421.246 165.356, 422 167.141, 422 171.241 L 422 176 425.500 176 L 429 176 429 171.223 C 429 167.058, 429.704 165.436, 434.500 158.545 C 437.525 154.199, 440 150.274, 440 149.822 C 440 148.399, 433.212 148.931, 431.669 150.473 C 430.859 151.284, 429.215 153.534, 428.016 155.473 C 426.818 157.413, 425.660 159, 425.444 159 C 425.228 159, 424.403 157.762, 423.611 156.250 C 421.201 151.650, 418.100 149, 415.128 149 C 413.591 149, 412.059 149.275, 411.723 149.610 M 456.110 150.396 C 453.716 151.722, 451.102 155.471, 451.035 157.673 C 450.949 160.519, 456.129 164.832, 461.053 166.013 C 463.968 166.712, 465.935 167.702, 465.718 168.361 C 465.051 170.389, 461.159 170.208, 459.323 168.064 C 456.961 165.305, 451 165.163, 451 167.865 C 451 175.327, 464.865 179.501, 470.919 173.861 C 476.456 168.702, 473.847 162.782, 464.689 159.730 C 461.560 158.687, 459 157.421, 459 156.917 C 459 155.354, 465.018 155.883, 465.638 157.500 C 466.449 159.613, 473 159.555, 473 157.434 C 473 151.004, 462.733 146.725, 456.110 150.396 M 477.700 149.633 C 477.315 150.018, 477 156.108, 477 163.167 L 477 176 487.500 176 L 498 176 498 172.500 L 498 169 491 169 C 485.444 169, 484 168.690, 484 167.500 C 484 166.348, 485.278 166, 489.500 166 L 495 166 495 162.500 L 495 159 489.500 159 C 485.278 159, 484 158.652, 484 157.500 C 484 156.308, 485.451 156, 491.063 156 L 498.127 156 497.813 152.750 L 497.500 149.500 487.950 149.216 C 482.698 149.060, 478.086 149.248, 477.700 149.633 M 501.476 150.203 C 501.177 150.980, 501.061 156.990, 501.217 163.558 L 501.500 175.500 505.250 175.810 C 508.834 176.107, 509 175.985, 509 173.060 C 509 168.985, 511.898 168.955, 514.203 173.006 C 515.709 175.651, 516.443 176, 520.513 176 C 525.451 176, 525.450 176.002, 521.588 170.699 C 520.235 168.841, 519.911 167.662, 520.624 167.199 C 524.786 164.497, 525.024 157.177, 521.092 152.777 C 518.338 149.695, 517.759 149.504, 510.101 149.156 C 503.807 148.870, 501.898 149.102, 501.476 150.203 M 526.770 149.563 C 526.460 149.873, 528.737 155.948, 531.830 163.063 L 537.452 176 541.587 176 C 545.649 176, 545.759 175.907, 547.767 170.750 C 548.891 167.863, 551.398 162.056, 553.336 157.847 C 555.275 153.638, 556.592 149.926, 556.264 149.597 C 555.429 148.763, 550.719 148.879, 549.443 149.765 C 548.862 150.169, 546.861 154.003, 544.997 158.285 C 541.171 167.074, 541.381 167.133, 536.858 156 C 535.630 152.975, 534.146 150.169, 533.562 149.765 C 532.306 148.897, 527.577 148.756, 526.770 149.563 M 560 162.437 L 560 176 563.529 176 L 567.058 176 566.779 162.750 L 566.500 149.500 563.250 149.187 L 560 148.873 560 162.437 M 577.241 150.995 C 566.928 157.283, 568.238 171.252, 579.546 175.571 C 583.342 177.020, 584.699 177.107, 588.019 176.112 C 590.193 175.461, 593.201 173.871, 594.704 172.579 C 597.025 170.582, 597.239 169.993, 596.127 168.653 C 594.099 166.210, 591.179 165.678, 589.426 167.432 C 587.278 169.579, 581.699 169.430, 579.655 167.171 C 577.458 164.744, 577.550 159.717, 579.829 157.655 C 582.319 155.401, 587.286 155.554, 589.455 157.951 C 591.236 159.918, 592.210 159.704, 596.911 156.309 C 597.648 155.776, 593.569 151.828, 590.802 150.398 C 586.965 148.413, 581.047 148.674, 577.241 150.995 M 600.713 149.621 C 600.321 150.013, 600 156.108, 600 163.167 L 600 176 603.529 176 L 607.058 176 606.779 162.750 L 606.500 149.500 603.963 149.204 C 602.567 149.041, 601.104 149.229, 600.713 149.621 M 619 149.706 C 616.668 150.559, 612.954 154.223, 611.405 157.200 C 607.337 165.018, 612.454 174.543, 621.764 176.484 C 626.071 177.383, 632.916 174.104, 635.355 169.976 C 637.621 166.140, 637.710 158.732, 635.529 155.404 C 632.215 150.346, 624.513 147.691, 619 149.706 M 643.784 150.678 C 642.290 151.637, 640.549 153.674, 639.915 155.205 C 637.938 159.979, 642.478 164.677, 650.803 166.471 C 652.633 166.865, 653.936 167.699, 653.725 168.341 C 653.065 170.346, 649.467 170.174, 647.540 168.044 C 645.590 165.889, 639 165.122, 639 167.050 C 639 169.266, 641.932 173.621, 644.165 174.723 C 650.235 177.717, 657.609 176.824, 660.463 172.749 C 664.282 167.296, 661.029 162.089, 652.158 159.454 C 646.890 157.890, 646.032 156, 650.590 156 C 651.950 156, 653.322 156.675, 653.638 157.500 C 653.994 158.426, 655.513 159, 657.607 159 C 661.774 159, 662.188 156.493, 658.691 152.427 C 655.687 148.935, 647.920 148.023, 643.784 150.678 M 263 158 C 261.900 159.100, 261 161.025, 261 162.277 C 261 165.192, 263.651 169, 265.679 169 C 266.966 169, 267.020 168.730, 265.984 167.481 C 264.953 166.238, 265.050 165.603, 266.517 163.981 C 268.701 161.568, 269.796 161.505, 272.171 163.655 C 273.899 165.219, 274 165.164, 274 162.655 C 274 159.309, 270.768 156, 267.500 156 C 266.125 156, 264.100 156.900, 263 158 M 331 159.437 C 331 162.848, 331.150 163, 334.531 163 C 340.767 163, 340.420 156.811, 334.149 156.187 C 331.147 155.888, 331 156.040, 331 159.437 M 357.073 158.635 C 355.933 160.084, 355 162.109, 355 163.135 C 355 168.466, 364.345 171.201, 367.443 166.777 C 369.532 163.796, 369.404 161.783, 366.927 158.635 C 365.553 156.888, 363.893 156, 362 156 C 360.107 156, 358.447 156.888, 357.073 158.635 M 509 159.500 C 509 162.713, 509.243 163, 511.965 163 C 515.772 163, 517.751 159.894, 515.427 157.569 C 514.563 156.706, 512.764 156, 511.429 156 C 509.320 156, 509 156.461, 509 159.500 M 619 158 C 614.932 162.068, 617.655 169.012, 623.307 168.985 C 627.060 168.967, 628.292 168.276, 629.850 165.316 C 631.493 162.194, 631.308 161.217, 628.545 158.455 C 625.572 155.482, 621.703 155.297, 619 158" stroke="none" fill="#4b4b45" fill-rule="evenodd"/><path d="M 98.500 18.890 C 85.974 24.671, 83.178 40.106, 92.820 50.234 C 97.178 54.812, 101.578 56.366, 108.548 55.788 C 118.161 54.990, 124.994 48.119, 125.796 38.441 C 126.058 35.286, 125.709 31.646, 124.964 29.755 C 120.858 19.338, 108.512 14.269, 98.500 18.890 M 270.692 26.097 C 268.598 26.590, 263.513 28.551, 259.391 30.455 C 244.610 37.284, 233.282 52.501, 230.736 68.947 C 227.515 89.759, 239.106 111.552, 258.451 121.057 C 279.021 131.165, 301.850 128.646, 320.212 114.245 C 329.166 107.222, 329 107.745, 329 86.518 L 329 67.966 303.250 68.233 L 277.500 68.500 277.500 78 L 277.500 87.500 292.250 87.777 L 307 88.053 307 91.976 C 307 95.237, 306.452 96.308, 303.750 98.325 C 298.900 101.948, 293.408 103.410, 284.500 103.453 C 277.720 103.485, 275.630 103.064, 270.796 100.694 C 258.414 94.624, 252.550 81.005, 256.467 67.417 C 258.812 59.279, 266.323 51.834, 274.620 49.422 C 284.819 46.457, 299.727 49.621, 305.472 55.969 C 307.242 57.925, 307.372 57.890, 317.590 52.723 C 323.270 49.850, 327.936 47.116, 327.959 46.646 C 327.982 46.176, 325.311 43.161, 322.025 39.946 C 315.727 33.782, 305.233 27.968, 297 26.081 C 291.590 24.840, 275.992 24.850, 270.692 26.097 M 484.972 26.877 C 452.987 37.114, 438.179 69.721, 452.425 98.545 C 461.953 117.825, 481.457 128.279, 504.940 126.694 C 519.134 125.736, 529.213 121.326, 539.969 111.368 L 546 105.785 546 86.892 L 546 68 519.964 68 L 493.928 68 494.214 77.750 L 494.500 87.500 509.250 87.777 L 524 88.053 524 91.872 C 524 96.356, 522.470 98.015, 515.463 101.130 C 508.158 104.378, 494.286 104.384, 487.999 101.141 C 478.385 96.183, 473.051 88.510, 472.246 78.479 C 471.256 66.142, 476.451 56.380, 486.682 51.357 C 491.624 48.930, 493.705 48.502, 500.500 48.516 C 510.064 48.536, 514.972 50.077, 520.033 54.649 L 523.805 58.056 533.652 52.943 C 539.069 50.131, 543.842 47.503, 544.260 47.104 C 545.289 46.123, 537.506 38.132, 531.489 33.992 C 528.805 32.146, 522.984 29.373, 518.554 27.831 C 511.756 25.464, 508.940 25.033, 500.500 25.067 C 493.783 25.094, 488.685 25.688, 484.972 26.877 M 341.207 58.250 C 341.549 89.305, 341.649 90.722, 343.913 96.500 C 349.101 109.735, 358.287 119.588, 369.656 124.111 C 374.655 126.100, 377.307 126.441, 388 126.468 C 400.375 126.500, 400.577 126.463, 408.230 122.809 C 418.007 118.140, 424.804 111.805, 429.380 103.095 C 435.439 91.567, 436.067 86.815, 435.766 54.777 L 435.500 26.500 423.500 26.500 L 411.500 26.500 410.941 55.500 C 410.312 88.197, 409.738 91.262, 402.989 98.011 C 396.362 104.638, 383.801 105.781, 375.798 100.485 C 370.705 97.114, 367.194 89.891, 365.953 80.230 C 365.407 75.978, 364.985 62.600, 365.015 50.500 C 365.045 38.400, 365.054 27.938, 365.035 27.250 C 365.009 26.321, 361.900 26, 352.926 26 L 340.853 26 341.207 58.250 M 591.337 29.750 C 590.479 31.813, 585.041 44.525, 579.252 58 C 573.464 71.475, 567.706 84.975, 566.456 88 C 565.206 91.025, 561.232 100.430, 557.625 108.899 C 554.018 117.369, 551.303 124.681, 551.592 125.149 C 552.468 126.566, 575.603 126.198, 576.714 124.750 C 577.242 124.063, 578.972 120.463, 580.559 116.750 L 583.445 110 606.473 110.012 L 629.500 110.025 632.410 117.262 C 634.011 121.243, 635.811 124.831, 636.410 125.235 C 637.912 126.247, 660.761 126.196, 661.390 125.179 C 661.902 124.349, 621.604 29.567, 619.753 27.250 C 619.047 26.366, 614.970 26, 605.827 26 L 592.898 26 591.337 29.750 M 74 38.679 C 74 39.052, 74.540 40.852, 75.201 42.679 C 76.280 45.663, 76.795 46, 80.280 46 C 84.132 46, 84.154 45.978, 83.462 42.750 C 83.078 40.962, 82.566 39.163, 82.323 38.750 C 81.773 37.815, 74 37.749, 74 38.679 M 31.143 51.662 C 23.277 59.542, 20.068 66.398, 19.284 77 C 17.862 96.219, 30.979 120.003, 53.912 139.787 C 73.463 156.654, 100.858 169.961, 126.089 174.846 C 148.558 179.196, 150.915 179.378, 161.622 177.586 C 187.150 173.313, 199.308 166.250, 206.628 151.439 C 209.559 145.508, 210.396 142.516, 210.775 136.609 C 211.832 120.137, 203.575 101.585, 187.421 84.138 C 183.786 80.212, 180.234 77, 179.528 77 C 178.821 77, 177.676 78.368, 176.984 80.040 C 176.291 81.712, 174.832 83.704, 173.742 84.468 C 171.848 85.795, 172.125 86.270, 179.948 95.124 C 188.672 104.997, 189.923 107.224, 192.671 117.776 C 197.515 136.368, 192.002 150.339, 176.760 158.097 C 168.338 162.384, 160.193 163.969, 146.500 163.984 C 126.866 164.006, 109.271 159.769, 88.383 149.991 C 67.757 140.335, 44.555 121.662, 35.201 107.189 C 26.065 93.054, 22.954 75.075, 27.877 64.866 C 29.106 62.317, 32.488 57.963, 35.394 55.190 C 39.024 51.726, 40.624 49.439, 40.510 47.881 C 40.212 43.842, 38.098 44.695, 31.143 51.662 M 124.853 51.907 L 122.206 55.737 132.353 60.798 C 137.934 63.581, 142.656 65.424, 142.846 64.892 C 143.036 64.361, 144.273 62.640, 145.596 61.069 C 146.918 59.497, 147.999 57.826, 147.997 57.356 C 147.993 56.502, 130.009 47.966, 128.366 48.038 C 127.890 48.059, 126.309 49.800, 124.853 51.907 M 599.281 72.673 L 592.203 89.500 605.739 89.779 C 613.184 89.933, 619.515 89.818, 619.808 89.525 C 620.325 89.008, 614.313 73.546, 608.978 61.673 L 606.359 55.846 599.281 72.673 M 92.251 62.491 C 82.891 66.559, 76.248 73.756, 71.474 85 C 69.814 88.909, 69.516 92.630, 69.201 113.331 C 68.786 140.663, 67.631 137.395, 80 143.879 C 95.739 152.129, 115.240 158.224, 131.851 160.085 C 136.993 160.661, 141.360 160.973, 141.554 160.779 C 141.749 160.585, 141.977 144.164, 142.062 124.289 L 142.216 88.152 139.678 82.608 C 136.254 75.128, 129.068 67.690, 121.720 64.018 C 114.280 60.300, 112.846 60.265, 110.880 63.750 C 109.465 66.259, 109.533 68.716, 111.661 91.797 L 113.993 117.094 110.746 121.508 C 108.961 123.936, 107.238 125.940, 106.917 125.961 C 106.597 125.982, 104.832 124.130, 102.996 121.845 C 99.073 116.964, 99.103 118.034, 102.007 86.665 C 103.772 67.596, 103.801 65.626, 102.352 63.415 C 100.532 60.637, 97.214 60.333, 92.251 62.491 M 43 81.500 C 43 83.519, 42.505 84, 40.427 84 C 37.180 84, 37.419 87.342, 40.699 87.811 C 42.052 88.005, 42.995 88.952, 43.189 90.311 C 43.360 91.515, 44.175 92.500, 45 92.500 C 45.825 92.500, 46.640 91.515, 46.811 90.311 C 47.005 88.952, 47.948 88.005, 49.301 87.811 C 52.581 87.342, 52.820 84, 49.573 84 C 47.495 84, 47 83.519, 47 81.500 C 47 79.667, 46.467 79, 45 79 C 43.533 79, 43 79.667, 43 81.500 M 172 106.500 C 172 108.519, 171.505 109, 169.427 109 C 167.515 109, 166.940 109.450, 167.190 110.748 C 167.376 111.712, 168.418 112.497, 169.513 112.498 C 170.812 112.499, 171.611 113.280, 171.820 114.750 C 172.020 116.163, 172.832 117, 174 117 C 175.168 117, 175.980 116.163, 176.180 114.750 C 176.386 113.304, 177.304 112.386, 178.750 112.180 C 181.869 111.738, 181.653 109, 178.500 109 C 176.500 109, 176 108.500, 176 106.500 C 176 104.667, 175.467 104, 174 104 C 172.533 104, 172 104.667, 172 106.500" stroke="none" fill="#0493d3" fill-rule="evenodd"/></svg>